<svg height="19.998" viewBox="0 0 131.201 19.998" width="131.201" xmlns="http://www.w3.org/2000/svg"><path d="m472.138 130.761h-5.247l-10.307 11.99v3.933h10.8v3.453h4.755v-3.319h2.461v-4.543h-2.462zm-4.755 9.6v1.912h-1.422c-1.311 0-2.623.029-3.581.084a32.63 32.63 0 0 0 2.515-2.825l.273-.333a30.444 30.444 0 0 0 2.3-3.019c-.058.913-.085 3.044-.085 4.179z" fill="#e54e23" transform="translate(-456.585 -130.448)"/><path d="m488.626 139.82a3.959 3.959 0 0 0 2.541-3.792c0-4.1-3.062-5.567-7.655-5.567a11.508 11.508 0 0 0 -7.407 2.521l2.514 3.489a7.608 7.608 0 0 1 4.757-1.66c1.886 0 2.651.554 2.651 1.579 0 1.274-.547 1.633-2.215 1.633h-2.461v4.177h2.761c1.941 0 2.705.5 2.705 1.855 0 1.331-.927 1.971-3.142 1.971v-.006a8.676 8.676 0 0 1 -5.44-2.024l-2.733 3.49a11.916 11.916 0 0 0 8.063 2.964c5.194 0 8.393-1.971 8.393-6.454a4.061 4.061 0 0 0 -3.332-4.176z" fill="#e54e23" transform="translate(-455.879 -130.459)"/><g fill="#fff"><path d="m505.6 136.041c0 1.578.028 4.155.165 5.013-.415-.8-2.106-3.381-2.981-4.571l-4.208-5.731h-4.676v19.386h5.083v-5.927c0-1.578-.028-4.154-.164-5.012.492.858 2.132 3.352 2.979 4.543l4.564 6.4h4.318v-19.39h-5.083z" transform="translate(-455.193 -130.448)"/><path d="m521.411 130.462c-5.192 0-8.885 3.572-8.885 10.025s3.636 9.97 8.827 9.97 8.885-3.573 8.885-10.025-3.638-9.97-8.827-9.97zm0 15.316c-2.132 0-3.391-1.855-3.391-5.344s1.2-5.29 3.334-5.29 3.39 1.855 3.39 5.344-1.201 5.29-3.333 5.29z" transform="translate(-454.498 -130.459)"/><path d="m548.07 137.065c0-4.6-2.981-6.314-7.462-6.314h-8.557v19.386h5.223v-6.537h2.13l3.117 6.535h5.931l-3.826-7.395a5.747 5.747 0 0 0 3.444-5.675zm-7.678 2.3h-3.112v-4.237h3.2c1.666 0 2.323.859 2.323 2.075-.003 1.384-.688 2.159-2.411 2.159z" transform="translate(-453.77 -130.448)"/><path d="m549 135.432h5.359v14.707h5.3v-14.707h5.357v-4.681h-16.016z" transform="translate(-453.137 -130.448)"/><path d="m578.26 130.751v7.34h-5.96v-7.339h-5.411v19.388h5.411v-7.365h5.96v7.365h5.411v-19.389z" transform="translate(-452.47 -130.448)"/></g></svg>